<svg width="512" height="512" viewBox="0 0 512 512" fill="none" xmlns="http://www.w3.org/2000/svg" role="img" aria-label="Study Blueprint icon">
  <defs>
    <linearGradient id="g1" x1="80" y1="420" x2="420" y2="80" gradientUnits="userSpaceOnUse">
      <stop stop-color="#1D4ED8"/>
      <stop offset="0.55" stop-color="#2563EB"/>
      <stop offset="1" stop-color="#38BDF8"/>
    </linearGradient>
    <linearGradient id="g2" x1="115" y1="345" x2="365" y2="170" gradientUnits="userSpaceOnUse">
      <stop stop-color="#67E8F9"/>
      <stop offset="1" stop-color="#FFFFFF"/>
    </linearGradient>
  </defs>
  <rect x="44" y="44" width="424" height="424" rx="96" fill="url(#g1)"/>
  <path d="M112 130H378" stroke="#BFDBFE" stroke-width="7" stroke-dasharray="24 24" opacity="0.7"/>
  <path d="M112 224H378" stroke="#BFDBFE" stroke-width="7" stroke-dasharray="24 24" opacity="0.45"/>
  <path d="M112 318H378" stroke="#BFDBFE" stroke-width="7" stroke-dasharray="24 24" opacity="0.45"/>
  <path d="M158 94V408" stroke="#BFDBFE" stroke-width="7" stroke-dasharray="24 24" opacity="0.45"/>
  <path d="M272 94V408" stroke="#BFDBFE" stroke-width="7" stroke-dasharray="24 24" opacity="0.45"/>
  <rect x="143" y="306" width="60" height="86" rx="14" fill="white" fill-opacity="0.92"/>
  <rect x="225" y="250" width="60" height="142" rx="14" fill="white" fill-opacity="0.94"/>
  <rect x="307" y="185" width="60" height="207" rx="14" fill="white" fill-opacity="0.96"/>
  <path d="M92 330C165 320 244 258 330 169" stroke="url(#g2)" stroke-width="30" stroke-linecap="round"/>
  <path d="M326 169C356 101 420 69 444 58C443 110 420 170 365 206L326 169Z" fill="#F8FAFC"/>
  <circle cx="404" cy="108" r="22" fill="#0F172A"/>
  <path d="M344 205L305 230L326 169" fill="#E0F2FE"/>
  <path d="M365 206L346 264L393 221" fill="#DBEAFE"/>
  <path d="M344 166L305 166" stroke="#F8FAFC" stroke-width="20" stroke-linecap="round"/>
</svg>